<svg xmlns="http://www.w3.org/2000/svg" viewBox="0 0 1080 1080" font-family="-apple-system,Segoe UI,Inter,Helvetica,Arial,sans-serif">
  <defs>
    <linearGradient id="ndviA" x1="0" x2="1" y1="0" y2="1">
      <stop offset="0%" stop-color="#a8d894"/>
      <stop offset="40%" stop-color="#5eb169"/>
      <stop offset="100%" stop-color="#2b7a3a"/>
    </linearGradient>
    <linearGradient id="ndviB" x1="0" x2="1" y1="0" y2="0">
      <stop offset="0%" stop-color="#d9e8a3"/>
      <stop offset="100%" stop-color="#7cb27c"/>
    </linearGradient>
    <linearGradient id="ndviC" x1="0" x2="0" y1="0" y2="1">
      <stop offset="0%" stop-color="#3f8b48"/>
      <stop offset="100%" stop-color="#1f5d2b"/>
    </linearGradient>
    <pattern id="grid" width="32" height="32" patternUnits="userSpaceOnUse">
      <path d="M 32 0 L 0 0 0 32" fill="none" stroke="#0a0a0a" stroke-opacity="0.04"/>
    </pattern>
  </defs>

  <!-- Fondo -->
  <rect width="1080" height="1080" fill="#ffffff"/>

  <!-- Eyebrow -->
  <text x="80" y="120" font-size="22" font-weight="700" letter-spacing="3" fill="#2b7a3a">KYLIA · LANZAMIENTO 2026</text>

  <!-- Titular -->
  <text x="80" y="200" font-size="60" font-weight="800" fill="#0f3617">Tus parcelas SIGPAC,</text>
  <text x="80" y="270" font-size="60" font-weight="800" fill="#0f3617">desde el espacio.</text>

  <!-- Mapa NDVI -->
  <g transform="translate(80,330)">
    <rect width="920" height="500" rx="20" fill="#f6f7f8" stroke="#e6e7e8"/>
    <!-- Parcelas estilizadas -->
    <path d="M 60 80 L 380 60 L 430 220 L 350 320 L 80 290 Z" fill="url(#ndviA)" stroke="#0f3617" stroke-width="3"/>
    <path d="M 460 70 L 720 90 L 760 250 L 500 280 Z" fill="url(#ndviB)" stroke="#0f3617" stroke-width="3"/>
    <path d="M 780 100 L 870 110 L 855 240 L 770 230 Z" fill="url(#ndviC)" stroke="#0f3617" stroke-width="3"/>
    <path d="M 130 340 L 600 320 L 670 470 L 90 460 Z" fill="url(#ndviA)" stroke="#0f3617" stroke-width="3" opacity="0.92"/>
    <path d="M 690 320 L 870 320 L 870 460 L 700 460 Z" fill="url(#ndviB)" stroke="#0f3617" stroke-width="3"/>
    <rect width="920" height="500" rx="20" fill="url(#grid)"/>
    <!-- Pin con badge -->
    <circle cx="245" cy="180" r="14" fill="#fff" stroke="#0f3617" stroke-width="3"/>
    <circle cx="245" cy="180" r="6" fill="#0f3617"/>
    <rect x="280" y="155" width="180" height="50" rx="10" fill="#ffffff" stroke="#0f3617" stroke-width="2"/>
    <text x="295" y="178" font-size="14" font-weight="700" fill="#0f3617">NDVI 0,72</text>
    <text x="295" y="196" font-size="12" fill="#445">Olivar · 12 ha · vigor alto</text>
    <!-- Esquina marca de tiempo -->
    <rect x="700" y="450" width="200" height="34" rx="8" fill="#ffffff" stroke="#e6e7e8"/>
    <text x="715" y="471" font-size="13" font-weight="600" fill="#445">Sentinel-2 · 22 abr 2026</text>
  </g>

  <!-- Pricing chips: 2 filas para no saturar -->
  <g transform="translate(80,870)" font-size="20" font-weight="700">
    <rect width="300" height="56" rx="28" fill="#e8f3ea" stroke="#2b7a3a" stroke-width="2"/>
    <text x="40" y="36" fill="#1f5d2b">Free hasta 30 ha</text>

    <rect x="320" width="280" height="56" rx="28" fill="#ffffff" stroke="#0f3617" stroke-width="2"/>
    <text x="355" y="36" fill="#0f3617">Productor 99 €/año</text>

    <rect x="620" width="300" height="56" rx="28" fill="#0f3617"/>
    <text x="648" y="36" fill="#ffffff">Cooperativa · Enterprise</text>
  </g>

  <!-- Pie -->
  <text x="80" y="1020" font-size="22" font-weight="600" fill="#0f3617">kylia.app · Sentinel-2 · SIGPAC · DWD ICON</text>
</svg>
